<svg xmlns="http://www.w3.org/2000/svg" xmlns:xlink="http://www.w3.org/1999/xlink" viewBox="0,0,256,256" width="500px" height="500px" fill-rule="nonzero"><g transform="translate(38.4,38.4) scale(0.7,0.7)"><g fill="#242938" fill-rule="nonzero" stroke="none" stroke-width="1" stroke-linecap="butt" stroke-linejoin="miter" stroke-miterlimit="10" stroke-dasharray="" stroke-dashoffset="0" font-family="none" font-weight="none" font-size="none" text-anchor="none" style="mix-blend-mode: normal"><path d="M18.28571,310.85714c-40.39568,0 -73.14286,-32.74717 -73.14286,-73.14286v-219.42857c0,-40.39568 32.74717,-73.14286 73.14286,-73.14286h219.42857c40.39568,0 73.14286,32.74717 73.14286,73.14286v219.42857c0,40.39568 -32.74717,73.14286 -73.14286,73.14286z" id="shape"></path></g><g fill="#ffffff" fill-rule="nonzero" stroke="none" stroke-width="1" stroke-linecap="butt" stroke-linejoin="miter" stroke-miterlimit="10" stroke-dasharray="" stroke-dashoffset="0" font-family="none" font-weight="none" font-size="none" text-anchor="none" style="mix-blend-mode: normal"><g transform="scale(5.12,5.12)"><path d="M25.04102,1c-0.19484,-0.00756 -0.38764,0.04199 -0.55469,0.14258l-9.80664,5.88477c-0.1569,0.04735 -0.29976,0.13253 -0.41602,0.24805l-9.65039,5.79102c-0.42951,0.1739 -0.6833,0.62007 -0.61328,1.07813v11.57813c-0.05044,0.17814 -0.05044,0.36678 0,0.54492v9.73242c0.00022,0.3514 0.18484,0.6769 0.48633,0.85742l19.87109,11.92188c0.37088,0.31114 0.91137,0.31196 1.2832,0.00195l19.87305,-11.92383c0.30149,-0.18052 0.48611,-0.50602 0.48633,-0.85742v-9.82812c0.0203,-0.115 0.0203,-0.23266 0,-0.34766v-11.82422c0.00001,-0.0026 0.00001,-0.00521 0,-0.00781c-0.00055,-0.03067 -0.0025,-0.0613 -0.00586,-0.0918c-0.00249,-0.03076 -0.0064,-0.0614 -0.01172,-0.0918c-0.00064,-0.00261 -0.00129,-0.00521 -0.00195,-0.00781c-0.00065,-0.0013 -0.0013,-0.00261 -0.00195,-0.00391c-0.00636,-0.03095 -0.01418,-0.06159 -0.02344,-0.0918c-0.01015,-0.03182 -0.02188,-0.06311 -0.03516,-0.09375c-0.01282,-0.03064 -0.02716,-0.06063 -0.04297,-0.08984c-0.03209,-0.059 -0.07005,-0.11462 -0.11328,-0.16601c-0.02157,-0.02521 -0.04439,-0.04933 -0.06836,-0.07227c-0.02362,-0.02335 -0.04839,-0.04552 -0.07422,-0.06641c-0.02634,-0.0209 -0.05372,-0.04045 -0.08203,-0.05859c-0.01787,-0.01165 -0.03611,-0.02272 -0.05469,-0.0332l-9.83203,-5.89844c-0.07967,-0.06687 -0.16929,-0.12091 -0.26562,-0.16016l-9.87305,-5.92383c-0.14316,-0.08628 -0.30566,-0.1353 -0.47266,-0.14258zM25,3.16602l8.05664,4.83398l-8.05664,4.83398l-8.05664,-4.83398zM15,9.16602l9.48633,5.69141c0.31628,0.18933 0.71106,0.18933 1.02734,0l9.48633,-5.69141l7.99219,4.79492l-17.99219,9.89648l-17.99219,-9.89648zM6,15.69141l18,9.90039v20.64258l-9.02539,-5.41602v-9.81836c0.00003,-0.36373 -0.19742,-0.6988 -0.51562,-0.875l-8.45898,-4.69922zM44,15.69141v9.71875l-8.48633,4.71484c-0.31745,0.17671 -0.5141,0.51168 -0.51367,0.875v9.83398l-9,5.40039v-20.64258zM44,27.70117v7.73242l-7,4.19922v-8.04492zM6,27.71484l6.97461,3.87305v8.03125l-6.97461,-4.18555z"></path></g></g></g></svg>