<?xml version="1.0" encoding="UTF-8"?>
<svg version="1.1" xmlns="http://www.w3.org/2000/svg" width="480" height="480">
<path d="M0 0 C3.83103771 0.00914673 7.66200581 -0.00496631 11.49302912 -0.01591969 C18.97551495 -0.03360806 26.45783934 -0.02990846 33.94033122 -0.01826912 C40.02722614 -0.00919665 46.11407614 -0.00802719 52.20097589 -0.01236439 C53.07077843 -0.01297732 53.94058096 -0.01359025 54.83674115 -0.01422176 C56.60430965 -0.01550079 58.37187814 -0.01679765 60.13944662 -0.01811212 C76.67299805 -0.02948956 93.20646044 -0.01644891 109.73999727 0.00508934 C123.89407774 0.02295774 138.04802694 0.01985283 152.20210505 0.0014143 C168.68075228 -0.02004272 185.15932168 -0.02839118 201.63798094 -0.01613665 C203.3986643 -0.01486259 205.15934768 -0.01360511 206.92003107 -0.01236439 C207.78608302 -0.01174729 208.65213497 -0.01113018 209.54443091 -0.01049438 C215.6165699 -0.00705594 221.68865908 -0.01283714 227.76079035 -0.0222826 C235.17137584 -0.03355786 242.58179208 -0.03034736 249.99235845 -0.00915962 C253.76572374 0.00127708 257.53880796 0.00560063 261.31217051 -0.00775623 C293.95284128 -0.11378319 319.77835406 6.04094469 343.56050348 29.52289867 C363.71437194 49.64183842 370.02204215 74.90211768 370.10158151 102.42874932 C370.10300259 105.27333205 370.09347128 108.11783306 370.08340216 110.96239519 C370.07425543 114.7934329 370.08836847 118.624401 370.09932184 122.45542431 C370.11701022 129.93791014 370.11331062 137.42023453 370.10167128 144.90272641 C370.09259881 150.98962133 370.09142935 157.07647133 370.09576654 163.16337109 C370.09637948 164.03317362 370.09699241 164.90297615 370.09762391 165.79913634 C370.09890295 167.56670484 370.10019981 169.33427333 370.10151428 171.10184181 C370.11289171 187.63539324 370.09985107 204.16885563 370.07831281 220.70239246 C370.06044442 234.85647293 370.06354933 249.01042213 370.08198786 263.16450024 C370.10344488 279.64314747 370.11179334 296.12171687 370.0995388 312.60037613 C370.09826475 314.36105949 370.09700726 316.12174287 370.09576654 317.88242626 C370.09484089 319.18150418 370.09484089 319.18150418 370.09389654 320.5068261 C370.0904581 326.57896509 370.0962393 332.65105427 370.10568476 338.72318554 C370.11696002 346.13377103 370.11374952 353.54418728 370.09256178 360.95475364 C370.08212507 364.72811893 370.07780152 368.50120315 370.09115839 372.2745657 C370.19457272 404.10848625 364.61796889 430.11841455 341.56050348 453.52289867 C320.93771591 474.18017252 295.98515675 480.98211452 267.65465283 481.06397671 C264.81007011 481.06539778 261.9655691 481.05586647 259.12100697 481.04579735 C255.28996926 481.03665062 251.45900116 481.05076366 247.62797785 481.06171703 C240.14549202 481.07940541 232.66316763 481.07570581 225.18067575 481.06406647 C219.09378083 481.054994 213.00693082 481.05382454 206.92003107 481.05816174 C206.05022854 481.05877467 205.180426 481.0593876 204.28426582 481.06001911 C202.51669731 481.06129814 200.74912883 481.062595 198.98156035 481.06390947 C182.44800892 481.0752869 165.91454652 481.06224626 149.3810097 481.04070801 C135.22692923 481.02283961 121.07298003 481.02594452 106.91890192 481.04438305 C90.44025469 481.06584007 73.96168528 481.07418853 57.48302603 481.06193399 C55.72234266 481.06065994 53.96165928 481.05940245 52.20097589 481.05816174 C51.33492395 481.05754463 50.468872 481.05692753 49.57657605 481.05629173 C43.50443707 481.05285329 37.43234789 481.05863449 31.36021662 481.06807995 C23.94963113 481.07935521 16.53921488 481.07614471 9.12864852 481.05495697 C5.35528322 481.04452027 1.58219901 481.04019671 -2.19116354 481.05355358 C-34.02508409 481.15696792 -60.0350124 475.58036409 -83.43949652 452.52289867 C-104.09677036 431.9001111 -110.89871237 406.94755194 -110.98057455 378.61704803 C-110.98199563 375.7724653 -110.97246431 372.92796429 -110.96239519 370.08340216 C-110.95324847 366.25236445 -110.9673615 362.42139635 -110.97831488 358.59037304 C-110.99600326 351.10788721 -110.99230365 343.62556282 -110.98066431 336.14307094 C-110.97159184 330.05617602 -110.97042238 323.96932601 -110.97475958 317.88242626 C-110.97537251 317.01262373 -110.97598544 316.14282119 -110.97661695 315.24666101 C-110.97789599 313.47909251 -110.97919284 311.71152402 -110.98050731 309.94395554 C-110.99188475 293.41040411 -110.9788441 276.87694171 -110.95730585 260.34340489 C-110.93943745 246.18932442 -110.94254236 232.03537522 -110.96098089 217.88129711 C-110.98243792 201.40264988 -110.99078638 184.92408048 -110.97853184 168.44542122 C-110.97725778 166.68473785 -110.9760003 164.92405448 -110.97475958 163.16337109 C-110.97414248 162.29731914 -110.97352537 161.43126719 -110.97288957 160.53897125 C-110.96945113 154.46683226 -110.97523233 148.39474308 -110.98467779 142.32261181 C-110.99595305 134.91202632 -110.99274255 127.50161007 -110.97155482 120.09104371 C-110.96111811 116.31767841 -110.95679456 112.5445942 -110.97015142 108.77123165 C-111.07356576 76.9373111 -105.49696193 50.9273828 -82.43949652 27.52289867 C-59.0239357 4.0681814 -31.58007182 -0.11178645 0 0 Z " fill="#242937" transform="translate(110.4394965171814,-0.5228986740112305)"/>
<path d="M0 0 C1.25024963 0.11598541 1.25024963 0.11598541 2.52575684 0.23431396 C8.16756537 0.76160492 13.80329285 1.33475496 19.4375 1.9375 C20.1518924 2.01077515 20.86628479 2.08405029 21.60232544 2.1595459 C35.14627025 3.57520792 47.21367389 5.91711855 57 16 C64.64084689 25.59548214 65.95312877 36.96690272 67.625 48.75 C67.74834717 49.61786133 67.87169434 50.48572266 67.9987793 51.37988281 C70.13215345 67.50789614 70.23823486 83.69656464 70.25 99.9375 C70.25133942 101.03317291 70.25267883 102.12884583 70.25405884 103.25772095 C70.25040091 117.11584286 69.99217011 130.88597781 68.6875 144.6875 C68.51105957 146.56779907 68.51105957 146.56779907 68.33105469 148.48608398 C64.82295957 181.45186019 64.82295957 181.45186019 52.375 192.43359375 C36.6611919 204.69181905 9.5062565 203.24147926 -9.47955322 204.79046631 C-11.27712704 204.939905 -13.07424715 205.09484361 -14.87103271 205.253479 C-33.18651705 206.86330248 -51.36887197 207.3248407 -69.75 207.25 C-71.1259455 207.24663541 -72.50189159 207.24350471 -73.87783813 207.24060059 C-93.31597727 207.19340263 -112.6449207 206.96734022 -132 205 C-133.4469113 204.8587541 -134.89385309 204.71782031 -136.34082031 204.57714844 C-185.85294069 199.70247729 -185.85294069 199.70247729 -197.85546875 187.04296875 C-221.8891897 156.00683034 -211.55056889 82.98947978 -207.0703125 46.671875 C-205.3654648 33.5710852 -203.1658497 21.34455605 -193 12 C-186.54171979 7.33646039 -180.59079098 4.93643111 -172.75 3.8125 C-171.76676758 3.65797363 -170.78353516 3.50344727 -169.77050781 3.34423828 C-156.5741524 1.35925405 -143.2973251 0.07498701 -130 -1 C-128.70739258 -1.10586426 -127.41478516 -1.21172852 -126.08300781 -1.32080078 C-84.11693673 -4.59405058 -41.88892752 -3.93470988 0 0 Z " fill="#FE3D00" transform="translate(310,138)"/>
<path d="M0 0 C8.04794296 4.38978707 16.04343088 8.8269406 24 13.375 C24.59761139 13.71638 25.19522278 14.05776001 25.8109436 14.40948486 C38.28744785 21.54167898 50.64988648 28.85892401 62.99609375 36.21386719 C67.38488791 38.82345903 71.78479684 41.41396229 76.1875 44 C76.89479248 44.41556152 77.60208496 44.83112305 78.33081055 45.25927734 C79.88697075 46.17325397 81.44344147 47.08670191 83 48 C81.79330174 51.62009477 81.07308923 51.80788302 77.8203125 53.57421875 C76.92530029 54.06841309 76.03028809 54.56260742 75.1081543 55.07177734 C74.12371338 55.60496582 73.13927246 56.1381543 72.125 56.6875 C70.00767545 57.85807776 67.89184893 59.03136828 65.77734375 60.20703125 C64.66472168 60.82529785 63.55209961 61.44356445 62.40576172 62.08056641 C56.77773081 65.25243587 51.2341727 68.56354157 45.6875 71.875 C36.38750269 77.41344993 27.06038357 82.89852659 17.6875 88.3125 C16.60235107 88.94075684 15.51720215 89.56901367 14.39916992 90.21630859 C13.38443604 90.80105957 12.36970215 91.38581055 11.32421875 91.98828125 C10.43822998 92.49915283 9.55224121 93.01002441 8.6394043 93.53637695 C5.80462741 95.10833953 2.89924492 96.55037754 0 98 C0 65.66 0 33.32 0 0 Z " fill="#FFFDFD" transform="translate(212,191)"/>
</svg>
