<svg id="svg" version="1.1" xmlns="http://www.w3.org/2000/svg" xmlns:xlink="http://www.w3.org/1999/xlink" width="400" height="400" viewBox="0, 0, 400,400"><g id="svgg"><path id="path0" d="M149.800 91.536 C 148.207 92.510,147.706 93.613,147.229 97.200 C 146.731 100.945,145.674 107.891,145.160 110.800 C 144.946 112.010,144.531 114.710,144.238 116.800 C 143.944 118.890,143.660 120.600,143.605 120.600 C 143.550 120.600,143.265 122.310,142.971 124.400 C 142.040 131.033,140.151 143.448,139.562 146.800 C 139.113 149.363,138.198 155.391,137.438 160.800 C 137.145 162.890,136.860 164.600,136.805 164.600 C 136.750 164.600,136.454 166.400,136.148 168.600 C 135.628 172.336,135.048 176.062,134.623 178.400 C 134.523 178.950,134.318 180.570,134.168 182.000 C 134.017 183.430,133.758 184.780,133.591 185.000 C 133.425 185.220,133.159 186.930,133.000 188.800 C 132.841 190.670,132.573 192.380,132.403 192.600 C 132.234 192.820,131.965 194.620,131.806 196.600 C 131.647 198.580,131.400 200.380,131.258 200.600 C 131.021 200.967,130.309 205.682,129.746 210.600 C 129.621 211.700,129.374 212.780,129.199 213.000 C 129.024 213.220,128.751 215.020,128.593 217.000 C 128.434 218.980,128.164 220.780,127.993 221.000 C 127.821 221.220,127.551 223.020,127.393 225.000 C 127.234 226.980,126.964 228.780,126.793 229.000 C 126.621 229.220,126.351 230.978,126.193 232.906 C 126.034 234.834,125.746 236.510,125.552 236.630 C 125.358 236.749,125.200 237.797,125.200 238.957 C 125.200 240.117,125.085 241.182,124.944 241.322 C 124.804 241.463,124.636 242.258,124.572 243.089 C 124.508 243.920,124.255 245.680,124.011 247.000 C 123.767 248.320,123.580 250.095,123.596 250.944 C 123.612 251.792,123.425 252.729,123.180 253.024 C 122.935 253.320,122.818 253.885,122.921 254.281 C 123.067 254.846,123.117 254.807,123.154 254.100 C 123.179 253.605,123.356 253.200,123.547 253.200 C 123.738 253.200,124.844 251.265,126.005 248.900 C 127.166 246.535,128.720 243.669,129.458 242.532 C 130.196 241.395,130.800 240.259,130.800 240.009 C 130.800 239.758,130.980 239.664,131.200 239.800 C 131.420 239.936,131.621 239.812,131.646 239.524 C 131.672 239.236,131.717 238.730,131.746 238.400 C 131.776 238.070,132.025 237.845,132.300 237.900 C 132.575 237.955,132.781 237.865,132.757 237.700 C 132.678 237.152,133.289 235.600,133.583 235.600 C 133.743 235.600,134.102 234.835,134.382 233.900 C 134.662 232.965,135.196 231.750,135.569 231.200 C 135.943 230.650,137.659 227.365,139.383 223.900 C 141.107 220.435,142.671 217.600,142.858 217.600 C 143.046 217.600,143.200 217.324,143.200 216.987 C 143.200 216.651,143.470 216.271,143.800 216.145 C 144.130 216.018,144.400 215.494,144.400 214.981 C 144.400 214.467,144.563 213.947,144.762 213.824 C 145.108 213.610,147.143 209.895,149.091 205.920 C 149.597 204.886,150.189 203.930,150.406 203.796 C 150.623 203.662,150.800 203.225,150.800 202.825 C 150.800 202.425,151.070 201.874,151.400 201.600 C 151.730 201.326,152.000 200.786,152.000 200.400 C 152.000 200.014,152.270 199.474,152.600 199.200 C 152.930 198.926,153.200 198.358,153.200 197.938 C 153.200 197.519,153.470 197.071,153.800 196.945 C 154.142 196.813,154.400 196.217,154.400 195.557 C 154.400 194.921,154.581 194.400,154.801 194.400 C 155.022 194.400,155.517 193.672,155.901 192.783 C 156.338 191.772,156.937 191.082,157.500 190.940 C 158.485 190.692,158.688 190.164,157.900 189.898 C 157.506 189.766,157.513 189.594,157.929 189.089 C 158.220 188.736,158.715 188.546,159.029 188.667 C 159.343 188.787,159.600 188.701,159.600 188.476 C 159.600 188.251,159.375 187.976,159.100 187.865 C 158.801 187.744,158.882 187.650,159.300 187.632 C 159.792 187.609,160.000 187.268,160.000 186.480 C 160.000 185.864,160.201 185.159,160.446 184.914 C 160.692 184.668,161.112 184.047,161.379 183.534 C 161.647 183.020,162.083 182.648,162.350 182.706 C 162.713 182.785,162.727 182.611,162.403 182.006 C 162.058 181.361,162.094 181.200,162.586 181.200 C 162.972 181.200,163.200 180.834,163.200 180.214 C 163.200 179.672,163.521 179.057,163.912 178.847 C 164.304 178.637,164.655 178.062,164.692 177.569 C 164.730 177.076,164.994 176.527,165.280 176.351 C 165.566 176.174,165.824 175.888,165.854 175.715 C 166.033 174.670,166.547 173.600,166.870 173.600 C 167.078 173.600,167.138 173.424,167.005 173.208 C 166.675 172.674,167.548 171.120,168.015 171.410 C 168.222 171.537,168.283 171.360,168.151 171.016 C 167.877 170.303,168.709 169.096,169.245 169.428 C 169.440 169.549,169.600 169.187,169.600 168.624 C 169.600 167.980,169.823 167.600,170.200 167.600 C 170.748 167.600,170.957 167.037,170.907 165.700 C 170.897 165.425,171.139 165.200,171.444 165.200 C 171.750 165.200,172.000 164.840,172.000 164.400 C 172.000 163.960,172.180 163.600,172.400 163.600 C 172.620 163.600,172.771 163.465,172.736 163.300 C 172.658 162.928,173.133 161.600,173.631 160.800 C 173.837 160.470,174.107 159.930,174.231 159.600 C 174.356 159.270,174.625 158.730,174.830 158.400 C 175.034 158.070,175.379 157.390,175.595 156.890 C 175.811 156.389,176.261 155.875,176.594 155.747 C 176.942 155.613,177.200 155.022,177.200 154.357 C 177.200 153.642,177.410 153.200,177.750 153.200 C 178.078 153.200,178.300 152.773,178.300 152.144 C 178.300 151.563,178.593 150.924,178.950 150.724 C 179.308 150.524,179.600 150.009,179.600 149.580 C 179.600 149.151,179.870 148.800,180.200 148.800 C 180.530 148.800,180.800 148.460,180.800 148.043 C 180.800 147.576,181.171 147.194,181.772 147.043 C 182.307 146.909,183.032 146.511,183.384 146.159 C 184.383 145.160,185.385 146.105,187.460 150.000 C 188.457 151.870,190.129 155.020,191.177 157.000 C 192.225 158.980,193.717 161.770,194.491 163.200 C 196.158 166.275,198.963 171.568,200.850 175.196 C 202.947 179.229,203.476 179.687,205.305 179.057 C 206.854 178.524,208.540 177.073,208.109 176.643 C 207.976 176.509,208.141 176.400,208.475 176.400 C 209.120 176.400,215.200 170.540,215.200 169.918 C 215.200 169.717,215.359 169.651,215.552 169.771 C 215.746 169.890,216.331 169.362,216.852 168.597 C 217.374 167.832,217.929 167.204,218.087 167.203 C 218.454 167.199,223.600 161.910,223.600 161.535 C 223.600 161.380,222.581 159.307,221.336 156.927 C 220.091 154.547,218.246 150.980,217.236 149.000 C 216.226 147.020,215.310 145.310,215.200 145.200 C 215.090 145.090,214.100 143.200,213.000 141.000 C 211.900 138.800,210.910 136.910,210.800 136.800 C 210.602 136.602,208.534 132.647,205.565 126.788 C 202.077 119.905,198.089 119.742,194.688 126.343 C 186.595 142.051,184.977 145.017,184.534 144.952 C 184.223 144.907,182.495 142.092,181.495 140.000 C 181.232 139.450,180.923 138.910,180.808 138.800 C 180.694 138.690,179.900 137.250,179.044 135.600 C 178.189 133.950,176.763 131.250,175.876 129.600 C 174.988 127.950,173.798 125.700,173.231 124.600 C 172.664 123.500,172.110 122.510,172.000 122.400 C 171.890 122.290,171.246 121.120,170.568 119.800 C 169.378 117.483,166.982 112.972,164.511 108.400 C 160.698 101.346,159.711 99.496,158.234 96.635 C 155.313 90.978,153.001 89.580,149.800 91.536 M238.339 149.277 C 226.547 161.268,224.800 162.898,224.239 162.433 C 223.703 161.988,223.600 161.996,223.600 162.488 C 223.600 162.811,219.324 167.378,214.097 172.637 C 208.870 177.897,185.975 200.971,163.218 223.913 C 140.462 246.855,121.646 265.550,121.405 265.457 C 120.676 265.177,120.773 266.991,121.512 267.448 C 122.136 267.834,125.471 269.709,128.000 271.097 C 128.550 271.399,129.720 272.051,130.600 272.546 C 131.480 273.041,133.280 274.049,134.600 274.786 C 135.920 275.523,137.671 276.548,138.492 277.063 C 139.313 277.578,140.093 278.000,140.225 278.000 C 140.357 278.000,142.386 279.108,144.733 280.461 C 147.080 281.815,149.765 283.345,150.700 283.861 C 158.181 287.992,158.891 288.389,160.240 289.185 C 160.922 289.587,162.632 290.542,164.040 291.305 C 165.448 292.069,168.186 293.609,170.124 294.727 C 172.061 295.846,173.996 296.872,174.424 297.007 C 174.851 297.143,175.200 297.422,175.200 297.627 C 175.200 297.832,175.386 298.000,175.614 298.000 C 175.842 298.000,177.417 298.788,179.114 299.751 C 180.811 300.714,183.190 302.040,184.400 302.697 C 188.065 304.689,190.527 306.082,192.000 306.996 C 195.101 308.922,199.747 309.601,203.197 308.633 C 205.619 307.953,206.813 307.377,212.405 304.187 C 214.272 303.122,216.520 301.859,217.400 301.381 C 218.280 300.902,221.315 299.226,224.144 297.656 C 226.973 296.085,229.362 294.800,229.452 294.800 C 229.542 294.800,230.287 294.378,231.108 293.863 C 232.517 292.978,234.091 292.094,239.500 289.147 C 240.765 288.458,241.980 287.762,242.200 287.600 C 242.420 287.438,243.590 286.767,244.800 286.109 C 249.233 283.696,251.819 282.264,252.600 281.789 C 253.298 281.365,255.549 280.145,260.800 277.346 C 261.570 276.936,262.290 276.510,262.400 276.400 C 262.510 276.290,263.320 275.812,264.200 275.337 C 265.080 274.863,266.790 273.912,268.000 273.223 C 269.210 272.535,270.650 271.757,271.200 271.494 C 271.750 271.231,272.290 270.923,272.400 270.808 C 272.593 270.607,273.909 269.872,277.500 267.958 C 279.361 266.966,279.384 266.884,278.778 263.400 C 278.548 262.080,278.200 260.010,278.005 258.800 C 277.810 257.590,277.357 254.800,276.999 252.600 C 276.181 247.568,275.367 242.481,274.600 237.600 C 273.813 232.595,272.944 227.218,272.401 224.000 C 271.813 220.513,270.847 214.559,270.195 210.400 C 268.994 202.742,268.379 198.885,268.026 196.800 C 267.286 192.429,265.802 183.248,264.600 175.600 C 263.813 170.595,262.944 165.218,262.401 162.000 C 261.783 158.333,260.820 152.392,260.198 148.400 C 259.907 146.530,259.459 143.658,259.202 142.018 C 258.430 137.084,257.166 135.604,253.714 135.595 L 251.800 135.591 238.339 149.277 " stroke="none" fill="#faba26" fill-rule="evenodd"></path><path id="path1" d="M39.291 0.568 C 37.692 0.833,36.297 0.963,36.191 0.858 C 36.086 0.753,36.000 0.877,36.000 1.133 C 36.000 1.390,35.550 1.600,35.000 1.600 C 34.450 1.600,34.000 1.774,34.000 1.987 C 34.000 2.201,33.748 2.278,33.440 2.160 C 33.133 2.042,32.762 2.138,32.617 2.373 C 32.472 2.608,32.003 2.800,31.576 2.800 C 31.149 2.800,30.800 2.960,30.800 3.155 C 30.800 3.351,30.170 3.629,29.400 3.774 C 28.630 3.918,28.000 4.208,28.000 4.418 C 28.000 4.628,27.651 4.800,27.224 4.800 C 26.797 4.800,26.334 4.983,26.196 5.207 C 26.058 5.430,25.749 5.492,25.511 5.345 C 25.255 5.187,25.191 5.262,25.355 5.526 C 25.523 5.799,25.231 6.077,24.616 6.232 C 24.057 6.372,23.600 6.626,23.600 6.797 C 23.600 6.967,23.285 7.212,22.900 7.342 C 21.895 7.679,20.739 8.464,19.722 9.500 C 19.236 9.995,18.650 10.400,18.419 10.400 C 18.189 10.400,18.000 10.610,18.000 10.867 C 18.000 11.123,17.897 11.231,17.772 11.105 C 17.453 10.786,10.400 17.948,10.400 18.591 C 10.400 18.879,10.130 19.218,9.800 19.345 C 9.470 19.471,9.200 19.768,9.200 20.005 C 9.200 20.241,8.750 20.920,8.200 21.513 C 7.650 22.107,7.200 22.819,7.200 23.096 C 7.200 23.373,7.034 23.600,6.832 23.600 C 6.629 23.600,6.348 24.125,6.207 24.767 C 6.066 25.408,5.692 26.033,5.376 26.154 C 5.059 26.276,4.800 26.831,4.800 27.387 C 4.800 27.944,4.634 28.400,4.432 28.400 C 4.229 28.400,3.945 28.940,3.800 29.600 C 3.655 30.260,3.371 30.800,3.168 30.800 C 2.966 30.800,2.800 31.250,2.800 31.800 C 2.800 32.350,2.640 32.800,2.445 32.800 C 2.250 32.800,1.969 33.610,1.821 34.600 C 1.672 35.590,1.407 36.400,1.232 36.400 C -0.026 36.400,-0.790 351.209,0.447 360.000 C 0.679 361.650,0.883 363.225,0.901 363.500 C 0.919 363.775,1.083 364.000,1.267 364.000 C 1.450 364.000,1.601 364.405,1.602 364.900 C 1.604 365.395,1.874 366.316,2.202 366.946 C 2.531 367.576,2.800 368.431,2.800 368.846 C 2.800 369.261,2.966 369.600,3.168 369.600 C 3.371 369.600,3.655 370.140,3.800 370.800 C 3.945 371.460,4.229 372.000,4.432 372.000 C 4.634 372.000,4.800 372.338,4.800 372.751 C 4.800 373.164,5.070 373.726,5.400 374.000 C 5.730 374.274,6.000 374.842,6.000 375.262 C 6.000 375.681,6.252 376.122,6.561 376.240 C 6.869 376.359,7.224 376.758,7.349 377.128 C 7.613 377.906,8.381 379.127,9.100 379.912 C 9.375 380.212,9.600 380.702,9.600 381.002 C 9.600 381.301,9.963 381.661,10.406 381.802 C 10.849 381.943,11.146 382.180,11.067 382.329 C 10.881 382.676,17.461 389.206,17.727 388.939 C 17.837 388.829,18.046 389.113,18.190 389.570 C 18.335 390.026,18.793 390.400,19.207 390.400 C 19.621 390.400,20.104 390.625,20.280 390.900 C 20.602 391.403,21.688 392.170,22.800 392.680 C 23.130 392.831,23.638 393.190,23.929 393.478 C 24.219 393.765,24.692 394.000,24.980 394.000 C 25.267 394.000,25.726 394.270,26.000 394.600 C 26.274 394.930,26.836 395.200,27.249 395.200 C 27.662 395.200,28.000 395.366,28.000 395.568 C 28.000 395.771,28.540 396.055,29.200 396.200 C 29.860 396.345,30.400 396.629,30.400 396.832 C 30.400 397.034,30.739 397.200,31.154 397.200 C 31.569 397.200,32.424 397.469,33.054 397.798 C 33.684 398.126,34.605 398.396,35.100 398.398 C 35.595 398.399,36.000 398.550,36.000 398.733 C 36.000 398.917,36.225 399.081,36.500 399.099 C 36.775 399.117,38.350 399.321,40.000 399.553 C 44.307 400.159,354.425 400.165,359.400 399.559 C 361.380 399.318,363.189 398.967,363.420 398.778 C 363.651 398.589,364.596 398.314,365.520 398.166 C 366.444 398.019,367.200 397.741,367.200 397.549 C 367.200 397.357,367.650 397.200,368.200 397.200 C 368.750 397.200,369.200 397.034,369.200 396.832 C 369.200 396.629,369.740 396.345,370.400 396.200 C 371.060 396.055,371.600 395.771,371.600 395.568 C 371.600 395.366,372.056 395.200,372.613 395.200 C 373.169 395.200,373.724 394.941,373.846 394.624 C 373.967 394.308,374.592 393.934,375.233 393.793 C 375.875 393.652,376.400 393.371,376.400 393.168 C 376.400 392.966,376.627 392.800,376.904 392.800 C 377.181 392.800,377.856 392.386,378.404 391.879 C 378.952 391.373,379.715 390.839,380.100 390.692 C 380.485 390.545,380.800 390.239,380.800 390.013 C 380.800 389.786,381.058 389.600,381.374 389.600 C 382.097 389.600,389.600 382.137,389.600 381.417 C 389.600 381.125,389.870 380.782,390.200 380.655 C 390.530 380.529,390.800 380.232,390.800 379.995 C 390.800 379.759,391.250 379.080,391.800 378.487 C 392.350 377.893,392.800 377.181,392.800 376.904 C 392.800 376.627,392.960 376.400,393.157 376.400 C 393.353 376.400,393.628 375.943,393.768 375.384 C 393.923 374.769,394.201 374.477,394.474 374.645 C 394.738 374.809,394.813 374.745,394.655 374.489 C 394.508 374.251,394.570 373.942,394.793 373.804 C 395.017 373.666,395.200 373.203,395.200 372.776 C 395.200 372.349,395.360 372.000,395.555 372.000 C 395.751 372.000,396.029 371.370,396.174 370.600 C 396.318 369.830,396.608 369.200,396.818 369.200 C 397.028 369.200,397.200 368.951,397.200 368.646 C 397.200 368.341,397.469 367.576,397.798 366.946 C 398.126 366.316,398.396 365.305,398.398 364.700 C 398.399 364.095,398.548 363.600,398.728 363.600 C 399.940 363.600,400.000 355.891,400.000 199.871 C 400.000 44.869,399.949 38.086,398.765 36.580 C 398.584 36.349,398.314 35.404,398.166 34.480 C 398.019 33.556,397.741 32.800,397.549 32.800 C 397.357 32.800,397.200 32.350,397.200 31.800 C 397.200 31.250,397.028 30.800,396.818 30.800 C 396.608 30.800,396.318 30.170,396.174 29.400 C 396.029 28.630,395.751 28.000,395.555 28.000 C 395.360 28.000,395.200 27.651,395.200 27.224 C 395.200 26.797,395.017 26.334,394.793 26.196 C 394.570 26.058,394.508 25.749,394.655 25.511 C 394.813 25.255,394.738 25.191,394.474 25.355 C 394.201 25.523,393.923 25.231,393.768 24.616 C 393.628 24.057,393.374 23.600,393.203 23.600 C 393.033 23.600,392.788 23.285,392.658 22.900 C 392.321 21.895,391.536 20.739,390.500 19.722 C 390.005 19.236,389.600 18.657,389.600 18.435 C 389.600 17.857,382.530 10.803,382.241 11.092 C 382.108 11.225,382.000 11.123,382.000 10.867 C 382.000 10.610,381.811 10.400,381.581 10.400 C 381.350 10.400,380.764 9.995,380.278 9.500 C 379.305 8.509,378.625 8.060,376.115 6.752 C 375.189 6.269,374.542 5.694,374.677 5.475 C 374.813 5.256,374.728 5.197,374.489 5.345 C 374.251 5.492,373.942 5.430,373.804 5.207 C 373.666 4.983,373.203 4.800,372.776 4.800 C 372.349 4.800,372.000 4.640,372.000 4.445 C 372.000 4.249,371.370 3.971,370.600 3.826 C 369.830 3.682,369.200 3.392,369.200 3.182 C 369.200 2.972,368.750 2.800,368.200 2.800 C 367.650 2.800,367.200 2.643,367.200 2.451 C 367.200 2.259,366.444 1.981,365.520 1.834 C 364.596 1.686,363.651 1.411,363.420 1.222 C 362.005 0.065,353.287 0.003,199.000 0.044 C 78.805 0.076,41.521 0.199,39.291 0.568 M155.687 91.732 C 156.409 92.465,157.549 94.130,158.220 95.432 C 161.421 101.644,163.418 105.418,163.600 105.600 C 163.710 105.710,164.319 106.790,164.954 108.000 C 168.925 115.568,170.362 118.260,174.570 126.000 C 175.467 127.650,176.561 129.720,177.000 130.600 C 177.440 131.480,177.890 132.290,178.000 132.400 C 178.110 132.510,178.714 133.590,179.341 134.800 C 182.300 140.502,184.095 143.827,184.370 144.115 C 184.535 144.289,185.170 143.479,185.781 142.315 C 186.392 141.152,187.978 138.130,189.305 135.600 C 190.633 133.070,192.621 129.237,193.723 127.082 C 197.710 119.288,202.029 118.850,205.658 125.872 C 206.433 127.372,207.908 130.175,208.934 132.100 C 211.628 137.154,213.942 141.536,216.801 147.000 C 218.182 149.640,220.221 153.510,221.332 155.600 C 222.442 157.690,223.624 159.985,223.959 160.700 C 224.783 162.462,223.580 163.467,238.018 148.958 C 251.959 134.948,252.746 134.324,255.402 135.201 C 258.395 136.188,259.007 137.469,260.181 145.200 C 260.532 147.510,260.997 150.300,261.214 151.400 C 261.432 152.500,261.773 154.570,261.972 156.000 C 262.848 162.273,263.221 164.727,263.585 166.600 C 263.799 167.700,264.253 170.400,264.594 172.600 C 264.935 174.800,265.392 177.500,265.610 178.600 C 265.827 179.700,266.198 181.950,266.434 183.600 C 267.040 187.841,267.938 193.537,269.556 203.400 C 269.773 204.720,270.216 207.510,270.541 209.600 C 270.866 211.690,271.241 213.850,271.374 214.400 C 271.507 214.950,271.807 216.750,272.039 218.400 C 272.589 222.298,273.353 227.212,274.183 232.200 C 275.507 240.147,276.420 245.764,277.400 252.000 C 277.729 254.090,278.279 257.510,278.622 259.600 C 279.724 266.295,279.763 267.343,278.933 267.836 C 277.717 268.559,274.358 270.423,271.600 271.904 C 270.170 272.673,268.820 273.435,268.600 273.598 C 268.380 273.761,267.120 274.483,265.800 275.202 C 264.480 275.922,262.590 276.961,261.600 277.511 C 254.241 281.599,249.162 284.430,247.800 285.202 C 246.920 285.700,245.210 286.646,244.000 287.303 C 242.790 287.960,240.450 289.260,238.800 290.190 C 237.150 291.121,234.948 292.354,233.906 292.930 C 232.864 293.506,230.575 294.793,228.819 295.789 C 227.064 296.785,225.557 297.600,225.471 297.600 C 225.385 297.600,223.743 298.505,221.821 299.610 C 219.900 300.716,217.219 302.221,215.864 302.956 C 214.509 303.690,212.680 304.700,211.800 305.200 C 204.976 309.075,203.550 309.587,199.549 309.594 C 196.802 309.599,194.803 309.143,192.800 308.053 C 192.470 307.874,191.210 307.177,190.000 306.505 C 188.790 305.832,187.170 304.949,186.400 304.541 C 185.630 304.134,184.910 303.706,184.800 303.592 C 184.690 303.477,184.150 303.168,183.600 302.905 C 183.050 302.642,181.340 301.695,179.800 300.800 C 178.260 299.905,176.550 298.958,176.000 298.695 C 175.450 298.432,174.910 298.123,174.800 298.008 C 174.690 297.894,173.970 297.466,173.200 297.059 C 170.626 295.696,167.404 293.897,167.000 293.598 C 166.780 293.435,165.430 292.673,164.000 291.904 C 160.143 289.832,157.451 288.330,157.000 287.999 C 156.630 287.728,155.659 287.189,149.600 283.891 C 148.390 283.233,147.220 282.562,147.000 282.400 C 146.593 282.101,143.343 280.288,140.800 278.941 C 140.030 278.534,139.310 278.106,139.200 277.992 C 139.090 277.877,138.550 277.568,138.000 277.305 C 137.450 277.042,135.740 276.095,134.200 275.202 C 132.660 274.309,130.954 273.392,130.408 273.164 C 129.863 272.936,129.323 272.623,129.208 272.467 C 129.094 272.311,128.550 271.966,128.000 271.700 C 127.450 271.434,126.280 270.805,125.400 270.301 C 124.520 269.798,123.016 268.940,122.059 268.396 L 120.317 267.406 120.533 265.403 C 120.736 263.526,121.262 259.992,122.617 251.400 C 122.929 249.420,123.460 246.000,123.798 243.800 C 124.506 239.191,124.918 236.586,125.822 231.000 C 126.543 226.545,127.308 221.422,127.972 216.600 C 128.215 214.840,128.583 212.590,128.790 211.600 C 128.997 210.610,129.451 207.820,129.800 205.400 C 130.149 202.980,130.607 200.100,130.819 199.000 C 131.031 197.900,131.396 195.650,131.630 194.000 C 131.864 192.350,132.316 189.290,132.633 187.200 C 132.951 185.110,133.389 182.140,133.606 180.600 C 133.988 177.894,134.399 175.423,135.238 170.800 C 135.457 169.590,135.795 167.430,135.989 166.000 C 136.183 164.570,136.636 161.510,136.995 159.200 C 137.608 155.263,138.325 150.597,139.178 145.000 C 139.379 143.680,139.842 140.800,140.207 138.600 C 140.872 134.589,141.545 130.286,142.617 123.200 C 143.254 118.988,143.377 118.196,144.204 113.000 C 144.520 111.020,145.055 107.510,145.395 105.200 C 145.735 102.890,146.181 100.190,146.386 99.200 C 146.591 98.210,146.877 96.442,147.021 95.272 C 147.591 90.641,152.596 88.597,155.687 91.732 " stroke="none" fill="#2c3c4c" fill-rule="evenodd"></path><path id="path2" d="M145.693 106.400 C 145.693 107.170,145.775 107.485,145.876 107.100 C 145.976 106.715,145.976 106.085,145.876 105.700 C 145.775 105.315,145.693 105.630,145.693 106.400 M141.293 134.800 C 141.293 135.570,141.375 135.885,141.476 135.500 C 141.576 135.115,141.576 134.485,141.476 134.100 C 141.375 133.715,141.293 134.030,141.293 134.800 M140.093 142.400 C 140.093 143.170,140.175 143.485,140.276 143.100 C 140.376 142.715,140.376 142.085,140.276 141.700 C 140.175 141.315,140.093 141.630,140.093 142.400 M183.600 145.974 C 183.600 146.180,182.970 146.576,182.200 146.854 C 181.306 147.178,180.800 147.621,180.800 148.080 C 180.800 148.476,180.530 148.800,180.200 148.800 C 179.870 148.800,179.600 149.151,179.600 149.580 C 179.600 150.009,179.308 150.524,178.950 150.724 C 178.593 150.924,178.300 151.563,178.300 152.144 C 178.300 152.773,178.078 153.200,177.750 153.200 C 177.410 153.200,177.200 153.642,177.200 154.357 C 177.200 155.022,176.942 155.613,176.594 155.747 C 176.261 155.875,175.811 156.389,175.595 156.890 C 175.207 157.789,174.972 158.234,174.061 159.800 C 173.804 160.240,173.506 160.825,173.397 161.100 C 172.815 162.576,172.679 163.028,172.736 163.300 C 172.771 163.465,172.620 163.600,172.400 163.600 C 172.180 163.600,172.000 163.960,172.000 164.400 C 172.000 164.840,171.750 165.200,171.444 165.200 C 171.139 165.200,170.897 165.425,170.907 165.700 C 170.957 167.037,170.748 167.600,170.200 167.600 C 169.823 167.600,169.600 167.980,169.600 168.624 C 169.600 169.187,169.440 169.549,169.245 169.428 C 168.709 169.096,167.877 170.303,168.151 171.016 C 168.283 171.360,168.222 171.537,168.015 171.410 C 167.548 171.120,166.675 172.674,167.005 173.208 C 167.138 173.424,167.078 173.600,166.870 173.600 C 166.547 173.600,166.033 174.670,165.854 175.715 C 165.824 175.888,165.566 176.174,165.280 176.351 C 164.994 176.527,164.730 177.076,164.692 177.569 C 164.655 178.062,164.304 178.637,163.912 178.847 C 163.521 179.057,163.200 179.672,163.200 180.214 C 163.200 180.834,162.972 181.200,162.586 181.200 C 162.094 181.200,162.058 181.361,162.403 182.006 C 162.727 182.611,162.713 182.785,162.350 182.706 C 162.083 182.648,161.647 183.020,161.379 183.534 C 161.112 184.047,160.692 184.668,160.446 184.914 C 160.201 185.159,160.000 185.864,160.000 186.480 C 160.000 187.268,159.792 187.609,159.300 187.632 C 158.882 187.650,158.801 187.744,159.100 187.865 C 159.375 187.976,159.600 188.251,159.600 188.476 C 159.600 188.701,159.343 188.787,159.029 188.667 C 158.715 188.546,158.220 188.736,157.929 189.089 C 157.513 189.594,157.506 189.766,157.900 189.898 C 158.688 190.164,158.485 190.692,157.500 190.940 C 156.937 191.082,156.338 191.772,155.901 192.783 C 155.517 193.672,155.022 194.400,154.801 194.400 C 154.581 194.400,154.400 194.921,154.400 195.557 C 154.400 196.217,154.142 196.813,153.800 196.945 C 153.470 197.071,153.200 197.519,153.200 197.938 C 153.200 198.358,152.930 198.926,152.600 199.200 C 152.270 199.474,152.000 200.014,152.000 200.400 C 152.000 200.786,151.730 201.326,151.400 201.600 C 151.070 201.874,150.800 202.425,150.800 202.825 C 150.800 203.225,150.623 203.662,150.406 203.796 C 150.189 203.930,149.597 204.886,149.091 205.920 C 147.143 209.895,145.108 213.610,144.762 213.824 C 144.563 213.947,144.400 214.467,144.400 214.981 C 144.400 215.494,144.130 216.018,143.800 216.145 C 143.470 216.271,143.200 216.651,143.200 216.987 C 143.200 217.324,143.046 217.600,142.858 217.600 C 142.671 217.600,141.107 220.435,139.383 223.900 C 137.659 227.365,135.943 230.650,135.569 231.200 C 135.196 231.750,134.662 232.965,134.382 233.900 C 134.102 234.835,133.743 235.600,133.583 235.600 C 133.289 235.600,132.678 237.152,132.757 237.700 C 132.781 237.865,132.575 237.955,132.300 237.900 C 132.025 237.845,131.776 238.070,131.746 238.400 C 131.717 238.730,131.672 239.236,131.646 239.524 C 131.621 239.812,131.420 239.936,131.200 239.800 C 130.980 239.664,130.800 239.758,130.800 240.009 C 130.800 240.259,130.196 241.395,129.458 242.532 C 128.720 243.669,127.166 246.535,126.005 248.900 C 123.721 253.552,123.307 254.008,123.461 251.700 C 123.555 250.282,123.543 250.265,123.243 251.400 C 123.069 252.060,123.010 253.095,123.113 253.700 C 123.216 254.305,123.118 254.800,122.895 254.800 C 122.380 254.800,122.015 257.162,122.486 257.453 C 122.680 257.573,122.648 257.901,122.414 258.183 C 122.181 258.464,121.947 259.420,121.895 260.307 C 121.843 261.193,121.665 261.836,121.500 261.736 C 121.335 261.635,121.186 262.238,121.169 263.076 C 121.153 263.914,121.079 264.913,121.006 265.295 C 120.738 266.691,122.792 264.677,163.397 223.737 C 186.055 200.892,208.870 177.897,214.097 172.637 C 219.323 167.378,223.600 162.822,223.600 162.514 C 223.600 162.192,223.797 162.074,224.062 162.238 C 224.363 162.424,224.414 162.347,224.210 162.017 C 223.990 161.660,223.078 162.354,221.135 164.355 C 219.616 165.920,218.244 167.201,218.087 167.203 C 217.929 167.204,217.374 167.832,216.852 168.597 C 216.331 169.362,215.746 169.890,215.552 169.771 C 215.359 169.651,215.200 169.717,215.200 169.918 C 215.200 170.540,209.120 176.400,208.475 176.400 C 208.141 176.400,207.976 176.509,208.109 176.643 C 208.540 177.073,206.854 178.524,205.305 179.057 C 203.476 179.687,202.947 179.229,200.850 175.196 C 198.961 171.565,196.157 166.273,194.491 163.200 C 193.717 161.770,192.323 159.160,191.394 157.400 C 190.465 155.640,188.850 152.580,187.805 150.600 C 185.701 146.614,183.600 144.303,183.600 145.974 M136.893 163.200 C 136.893 163.970,136.975 164.285,137.076 163.900 C 137.176 163.515,137.176 162.885,137.076 162.500 C 136.975 162.115,136.893 162.430,136.893 163.200 M135.701 170.600 C 135.705 171.480,135.787 171.793,135.883 171.295 C 135.979 170.798,135.975 170.078,135.875 169.695 C 135.775 169.313,135.696 169.720,135.701 170.600 M131.301 199.000 C 131.305 199.880,131.387 200.193,131.483 199.695 C 131.579 199.198,131.575 198.478,131.475 198.095 C 131.375 197.713,131.296 198.120,131.301 199.000 M130.101 206.600 C 130.105 207.480,130.187 207.793,130.283 207.295 C 130.379 206.798,130.375 206.078,130.275 205.695 C 130.175 205.313,130.096 205.720,130.101 206.600 M127.952 219.913 C 127.821 220.707,127.879 221.081,128.101 220.859 C 128.303 220.657,128.401 220.067,128.319 219.546 C 128.193 218.745,128.137 218.802,127.952 219.913 M126.780 227.490 C 126.671 228.419,126.733 229.027,126.920 228.840 C 127.106 228.654,127.196 227.894,127.119 227.151 C 126.983 225.833,126.975 225.842,126.780 227.490 M125.709 234.800 C 125.709 235.790,125.787 236.195,125.882 235.700 C 125.978 235.205,125.978 234.395,125.882 233.900 C 125.787 233.405,125.709 233.810,125.709 234.800 M124.493 243.200 C 124.493 243.970,124.575 244.285,124.676 243.900 C 124.776 243.515,124.776 242.885,124.676 242.500 C 124.575 242.115,124.493 242.430,124.493 243.200 M123.646 247.667 C 123.621 248.034,123.496 248.664,123.370 249.067 C 123.152 249.762,123.163 249.763,123.597 249.087 C 123.848 248.696,123.973 248.066,123.873 247.687 C 123.711 247.068,123.688 247.066,123.646 247.667 " stroke="none" fill="#ef7c0c" fill-rule="evenodd"></path><path id="path3" d="M149.726 91.180 C 149.025 91.607,148.232 92.372,147.964 92.879 C 147.601 93.564,147.783 93.473,148.677 92.523 C 149.812 91.316,150.423 91.041,152.800 90.666 C 153.538 90.550,153.433 90.495,152.400 90.456 C 151.630 90.427,150.426 90.753,149.726 91.180 M155.599 92.300 C 156.122 93.015,156.613 93.600,156.689 93.600 C 156.993 93.600,156.001 92.100,155.345 91.567 C 154.913 91.216,155.010 91.496,155.599 92.300 M147.040 96.040 C 146.893 96.957,146.852 97.785,146.947 97.880 C 147.042 97.976,147.246 97.310,147.400 96.400 C 147.554 95.490,147.596 94.662,147.493 94.560 C 147.390 94.457,147.187 95.123,147.040 96.040 M146.054 102.400 C 146.019 102.950,145.896 103.850,145.783 104.400 L 145.577 105.400 146.007 104.415 C 146.243 103.874,146.365 102.974,146.278 102.415 L 146.120 101.400 146.054 102.400 M163.200 106.000 C 163.649 106.880,164.106 107.600,164.216 107.600 C 164.326 107.600,164.049 106.880,163.600 106.000 C 163.151 105.120,162.694 104.400,162.584 104.400 C 162.474 104.400,162.751 105.120,163.200 106.000 M144.901 110.200 C 144.905 111.080,144.987 111.393,145.083 110.895 C 145.179 110.398,145.175 109.678,145.075 109.295 C 144.975 108.913,144.896 109.320,144.901 110.200 M168.800 116.400 C 169.249 117.280,169.706 118.000,169.816 118.000 C 169.926 118.000,169.649 117.280,169.200 116.400 C 168.751 115.520,168.294 114.800,168.184 114.800 C 168.074 114.800,168.351 115.520,168.800 116.400 M143.856 116.084 C 143.721 116.588,143.630 117.540,143.653 118.200 C 143.681 119.028,143.797 118.784,144.026 117.413 C 144.376 115.323,144.274 114.526,143.856 116.084 M198.538 121.484 C 198.282 121.659,198.940 121.800,200.012 121.800 C 201.596 121.800,202.189 122.017,203.274 122.991 L 204.600 124.182 203.363 122.861 C 202.104 121.518,199.551 120.789,198.538 121.484 M142.618 124.218 C 142.465 125.239,142.422 126.155,142.522 126.255 C 142.622 126.355,142.829 125.602,142.982 124.582 C 143.135 123.561,143.178 122.645,143.078 122.545 C 142.978 122.445,142.771 123.198,142.618 124.218 M141.454 131.554 C 141.300 132.518,141.258 133.391,141.361 133.494 C 141.630 133.763,142.115 130.945,141.907 130.322 C 141.812 130.036,141.608 130.590,141.454 131.554 M177.600 132.800 C 178.049 133.680,178.506 134.400,178.616 134.400 C 178.726 134.400,178.449 133.680,178.000 132.800 C 177.551 131.920,177.094 131.200,176.984 131.200 C 176.874 131.200,177.151 131.920,177.600 132.800 M253.300 135.476 C 253.685 135.576,254.315 135.576,254.700 135.476 C 255.085 135.375,254.770 135.293,254.000 135.293 C 253.230 135.293,252.915 135.375,253.300 135.476 M245.200 141.800 C 242.236 144.770,239.989 147.174,240.206 147.143 C 240.608 147.084,251.123 136.400,250.778 136.400 C 250.674 136.400,248.164 138.830,245.200 141.800 M140.459 138.200 C 140.420 138.860,140.296 139.850,140.183 140.400 L 139.977 141.400 140.408 140.414 C 140.644 139.872,140.768 138.882,140.683 138.214 L 140.528 137.000 140.459 138.200 M187.600 139.200 C 187.151 140.080,186.874 140.800,186.984 140.800 C 187.094 140.800,187.551 140.080,188.000 139.200 C 188.449 138.320,188.726 137.600,188.616 137.600 C 188.506 137.600,188.049 138.320,187.600 139.200 M259.228 142.433 C 259.244 143.185,259.412 144.160,259.603 144.600 C 259.826 145.115,259.867 144.687,259.718 143.400 C 259.444 141.022,259.189 140.519,259.228 142.433 M183.612 143.851 C 183.583 144.929,184.733 145.274,185.194 144.326 C 185.608 143.475,185.597 143.459,185.058 144.128 C 184.490 144.832,184.457 144.832,184.048 144.128 C 183.815 143.728,183.619 143.603,183.612 143.851 M139.301 146.200 C 139.305 147.080,139.387 147.393,139.483 146.895 C 139.579 146.398,139.575 145.678,139.475 145.295 C 139.375 144.913,139.296 145.320,139.301 146.200 M260.428 150.033 C 260.444 150.785,260.612 151.760,260.803 152.200 C 261.026 152.715,261.067 152.287,260.918 151.000 C 260.644 148.622,260.389 148.119,260.428 150.033 M138.269 151.956 C 138.121 152.695,138.020 153.683,138.044 154.150 C 138.068 154.618,138.247 154.190,138.442 153.200 C 138.637 152.210,138.738 151.223,138.667 151.006 C 138.596 150.790,138.417 151.217,138.269 151.956 M233.600 153.606 C 232.390 154.879,229.961 157.423,228.202 159.260 C 226.443 161.097,227.568 160.082,230.702 157.005 C 233.836 153.928,236.400 151.363,236.400 151.305 C 236.400 150.872,235.484 151.624,233.600 153.606 M261.481 156.400 C 261.606 157.610,261.774 158.675,261.854 158.767 C 262.135 159.087,261.917 156.191,261.587 155.200 C 261.371 154.554,261.334 154.980,261.481 156.400 M222.600 159.200 C 222.941 159.860,223.311 160.400,223.421 160.400 C 223.531 160.400,223.341 159.860,223.000 159.200 C 222.659 158.540,222.289 158.000,222.179 158.000 C 222.069 158.000,222.259 158.540,222.600 159.200 M137.040 160.040 C 136.893 160.957,136.852 161.785,136.947 161.880 C 137.042 161.976,137.246 161.310,137.400 160.400 C 137.554 159.490,137.596 158.662,137.493 158.560 C 137.390 158.457,137.187 159.123,137.040 160.040 M262.487 162.400 C 262.483 162.950,262.624 163.850,262.800 164.400 C 263.231 165.744,263.231 164.292,262.800 162.600 C 262.526 161.522,262.494 161.502,262.487 162.400 M136.054 166.400 C 136.019 166.950,135.896 167.850,135.783 168.400 L 135.577 169.400 136.007 168.415 C 136.243 167.874,136.365 166.974,136.278 166.415 L 136.120 165.400 136.054 166.400 M263.628 169.633 C 263.644 170.385,263.812 171.360,264.003 171.800 C 264.226 172.315,264.267 171.887,264.118 170.600 C 263.844 168.222,263.589 167.719,263.628 169.633 M135.053 172.436 C 134.914 173.131,134.821 174.173,134.847 174.750 C 134.872 175.328,135.055 174.827,135.252 173.639 C 135.637 171.321,135.473 170.334,135.053 172.436 M264.828 177.233 C 264.844 177.985,265.012 178.960,265.203 179.400 C 265.426 179.915,265.467 179.487,265.318 178.200 C 265.044 175.822,264.789 175.319,264.828 177.233 M133.693 182.000 C 133.693 182.770,133.775 183.085,133.876 182.700 C 133.976 182.315,133.976 181.685,133.876 181.300 C 133.775 180.915,133.693 181.230,133.693 182.000 M265.882 183.800 C 266.009 184.900,266.177 185.875,266.256 185.967 C 266.555 186.314,266.328 183.364,265.997 182.600 C 265.774 182.085,265.733 182.513,265.882 183.800 M132.600 188.400 C 132.446 189.310,132.404 190.138,132.507 190.240 C 132.610 190.343,132.813 189.677,132.960 188.760 C 133.107 187.843,133.148 187.015,133.053 186.920 C 132.958 186.824,132.754 187.490,132.600 188.400 M267.072 191.000 C 267.199 192.100,267.369 193.075,267.451 193.167 C 267.732 193.482,267.520 190.999,267.180 190.000 C 266.951 189.326,266.916 189.651,267.072 191.000 M131.654 194.800 C 131.619 195.350,131.496 196.250,131.383 196.800 L 131.177 197.800 131.607 196.815 C 131.843 196.274,131.965 195.374,131.878 194.815 L 131.720 193.800 131.654 194.800 M268.028 197.033 C 268.044 197.675,268.216 198.560,268.410 199.000 C 268.647 199.534,268.686 199.202,268.527 198.000 C 268.246 195.880,267.988 195.380,268.028 197.033 M130.459 202.200 C 130.420 202.860,130.296 203.850,130.183 204.400 L 129.977 205.400 130.408 204.414 C 130.644 203.872,130.768 202.882,130.683 202.214 L 130.528 201.000 130.459 202.200 M269.228 204.433 C 269.244 205.185,269.412 206.160,269.603 206.600 C 269.826 207.115,269.867 206.687,269.718 205.400 C 269.444 203.022,269.189 202.519,269.228 204.433 M129.301 210.200 C 129.305 211.080,129.387 211.393,129.483 210.895 C 129.579 210.398,129.575 209.678,129.475 209.295 C 129.375 208.913,129.296 209.320,129.301 210.200 M270.428 212.033 C 270.444 212.785,270.612 213.760,270.803 214.200 C 271.026 214.715,271.067 214.287,270.918 213.000 C 270.644 210.622,270.389 210.119,270.428 212.033 M128.256 216.084 C 128.121 216.588,128.028 217.450,128.049 218.000 C 128.072 218.589,128.231 218.271,128.436 217.225 C 128.803 215.352,128.673 214.527,128.256 216.084 M271.481 218.400 C 271.606 219.610,271.774 220.675,271.854 220.767 C 272.135 221.087,271.917 218.191,271.587 217.200 C 271.371 216.554,271.334 216.980,271.481 218.400 M127.040 224.040 C 126.893 224.957,126.852 225.785,126.947 225.880 C 127.042 225.976,127.246 225.310,127.400 224.400 C 127.554 223.490,127.596 222.662,127.493 222.560 C 127.390 222.457,127.187 223.123,127.040 224.040 M272.487 224.400 C 272.483 224.950,272.624 225.850,272.800 226.400 C 273.231 227.744,273.231 226.292,272.800 224.600 C 272.526 223.522,272.494 223.502,272.487 224.400 M126.093 230.800 C 126.093 231.570,126.175 231.885,126.276 231.500 C 126.376 231.115,126.376 230.485,126.276 230.100 C 126.175 229.715,126.093 230.030,126.093 230.800 M273.628 231.633 C 273.644 232.385,273.812 233.360,274.003 233.800 C 274.226 234.315,274.267 233.887,274.118 232.600 C 273.844 230.222,273.589 229.719,273.628 231.633 M124.859 238.200 C 124.820 238.860,124.696 239.850,124.583 240.400 L 124.377 241.400 124.808 240.414 C 125.044 239.872,125.168 238.882,125.083 238.214 L 124.928 237.000 124.859 238.200 M274.828 239.233 C 274.844 239.985,275.012 240.960,275.203 241.400 C 275.426 241.915,275.467 241.487,275.318 240.200 C 275.044 237.822,274.789 237.319,274.828 239.233 M123.869 244.356 C 123.721 245.095,123.620 246.082,123.644 246.550 C 123.668 247.018,123.847 246.590,124.042 245.600 C 124.237 244.610,124.338 243.623,124.267 243.406 C 124.196 243.190,124.017 243.617,123.869 244.356 M275.882 245.800 C 276.009 246.900,276.177 247.875,276.256 247.967 C 276.555 248.314,276.328 245.364,275.997 244.600 C 275.774 244.085,275.733 244.513,275.882 245.800 M122.669 251.956 C 122.521 252.695,122.420 253.683,122.444 254.150 C 122.468 254.618,122.647 254.190,122.842 253.200 C 123.037 252.210,123.138 251.223,123.067 251.006 C 122.996 250.790,122.817 251.217,122.669 251.956 M277.072 253.000 C 277.199 254.100,277.369 255.075,277.451 255.167 C 277.732 255.482,277.520 252.999,277.180 252.000 C 276.951 251.326,276.916 251.651,277.072 253.000 M278.040 259.033 C 278.062 259.675,278.233 260.650,278.420 261.200 C 278.649 261.874,278.684 261.549,278.528 260.200 C 278.269 257.950,277.979 257.259,278.040 259.033 M121.649 259.000 C 121.616 259.440,121.496 260.250,121.383 260.800 L 121.177 261.800 121.606 260.819 C 121.842 260.279,121.961 259.469,121.872 259.019 C 121.713 258.221,121.707 258.221,121.649 259.000 M120.561 266.340 C 120.595 267.150,124.000 269.850,124.000 269.066 C 124.000 268.948,123.289 268.452,122.421 267.964 C 121.549 267.474,120.770 266.700,120.682 266.238 C 120.550 265.545,120.529 265.563,120.561 266.340 M279.200 266.056 C 279.200 266.527,278.885 267.167,278.500 267.478 C 277.868 267.989,277.888 268.002,278.700 267.608 C 279.477 267.232,280.067 265.200,279.400 265.200 C 279.290 265.200,279.200 265.585,279.200 266.056 M237.900 290.027 C 237.075 290.463,236.400 290.908,236.400 291.018 C 236.400 291.127,237.120 290.849,238.000 290.400 C 238.880 289.951,239.600 289.497,239.600 289.392 C 239.600 289.130,239.597 289.131,237.900 290.027 M167.200 293.379 C 167.200 293.489,167.740 293.859,168.400 294.200 C 169.060 294.541,169.600 294.731,169.600 294.621 C 169.600 294.511,169.060 294.141,168.400 293.800 C 167.740 293.459,167.200 293.269,167.200 293.379 M231.100 293.829 C 229.605 294.640,229.696 294.978,231.200 294.200 C 231.860 293.859,232.400 293.494,232.400 293.390 C 232.400 293.132,232.357 293.147,231.100 293.829 M198.707 309.490 C 199.426 309.579,200.506 309.577,201.107 309.486 C 201.708 309.395,201.120 309.322,199.800 309.324 C 198.480 309.326,197.988 309.401,198.707 309.490 " stroke="none" fill="#8d7447" fill-rule="evenodd"></path><path id="path4" d="M146.256 99.284 C 146.121 99.788,146.027 100.560,146.046 101.000 C 146.065 101.440,146.245 101.098,146.446 100.240 C 146.836 98.578,146.670 97.740,146.256 99.284 M144.054 113.600 C 144.019 114.150,143.896 115.050,143.783 115.600 L 143.577 116.600 144.007 115.615 C 144.243 115.074,144.365 114.174,144.278 113.615 L 144.120 112.600 144.054 113.600 M142.893 121.200 C 142.893 121.970,142.975 122.285,143.076 121.900 C 143.176 121.515,143.176 120.885,143.076 120.500 C 142.975 120.115,142.893 120.430,142.893 121.200 M196.887 122.300 C 196.268 122.905,196.130 123.110,196.581 122.755 C 197.031 122.400,197.760 121.910,198.200 121.667 C 198.640 121.423,198.778 121.219,198.506 121.212 C 198.235 121.205,197.506 121.695,196.887 122.300 M140.600 135.600 C 140.448 136.291,140.407 136.941,140.509 137.042 C 140.611 137.144,140.809 136.653,140.950 135.950 C 141.283 134.283,140.960 133.960,140.600 135.600 M139.440 142.840 C 139.293 143.757,139.252 144.585,139.347 144.680 C 139.442 144.776,139.646 144.110,139.800 143.200 C 139.954 142.290,139.996 141.462,139.893 141.360 C 139.790 141.257,139.587 141.923,139.440 142.840 M138.493 149.600 C 138.493 150.370,138.575 150.685,138.676 150.300 C 138.776 149.915,138.776 149.285,138.676 148.900 C 138.575 148.515,138.493 148.830,138.493 149.600 M137.293 157.200 C 137.293 157.970,137.375 158.285,137.476 157.900 C 137.576 157.515,137.576 156.885,137.476 156.500 C 137.375 156.115,137.293 156.430,137.293 157.200 M227.753 159.206 C 225.967 160.963,224.622 162.400,224.763 162.400 C 224.903 162.400,226.450 160.960,228.200 159.200 C 229.950 157.440,231.295 156.003,231.191 156.006 C 231.086 156.009,229.539 157.449,227.753 159.206 M136.256 163.284 C 136.121 163.788,136.027 164.560,136.046 165.000 C 136.065 165.440,136.245 165.098,136.446 164.240 C 136.836 162.578,136.670 161.740,136.256 163.284 M133.855 178.655 C 133.713 179.686,133.674 180.608,133.769 180.702 C 133.863 180.796,134.065 180.039,134.218 179.018 C 134.371 177.998,134.410 177.076,134.304 176.971 C 134.198 176.865,133.996 177.623,133.855 178.655 M265.628 180.633 C 265.644 181.275,265.816 182.160,266.010 182.600 C 266.247 183.134,266.286 182.802,266.127 181.600 C 265.846 179.480,265.588 178.980,265.628 180.633 M132.893 185.600 C 132.893 186.370,132.975 186.685,133.076 186.300 C 133.176 185.915,133.176 185.285,133.076 184.900 C 132.975 184.515,132.893 184.830,132.893 185.600 M266.893 188.000 C 266.893 188.770,266.975 189.085,267.076 188.700 C 267.176 188.315,267.176 187.685,267.076 187.300 C 266.975 186.915,266.893 187.230,266.893 188.000 M130.600 199.600 C 130.448 200.291,130.407 200.941,130.509 201.042 C 130.611 201.144,130.809 200.653,130.950 199.950 C 131.283 198.283,130.960 197.960,130.600 199.600 M128.459 213.400 C 128.420 214.060,128.296 215.050,128.183 215.600 L 127.977 216.600 128.408 215.614 C 128.644 215.072,128.768 214.082,128.683 213.414 L 128.528 212.200 128.459 213.400 M127.456 219.684 C 127.321 220.188,127.228 221.050,127.249 221.600 C 127.272 222.189,127.431 221.871,127.636 220.825 C 128.003 218.952,127.873 218.127,127.456 219.684 M125.022 235.422 C 124.872 236.225,124.828 236.962,124.926 237.060 C 125.024 237.157,125.227 236.581,125.378 235.778 C 125.528 234.975,125.572 234.238,125.474 234.140 C 125.376 234.043,125.173 234.619,125.022 235.422 M124.093 242.000 C 124.093 242.770,124.175 243.085,124.276 242.700 C 124.376 242.315,124.376 241.685,124.276 241.300 C 124.175 240.915,124.093 241.230,124.093 242.000 M275.693 242.800 C 275.693 243.570,275.775 243.885,275.876 243.500 C 275.976 243.115,275.976 242.485,275.876 242.100 C 275.775 241.715,275.693 242.030,275.693 242.800 M122.893 249.600 C 122.893 250.370,122.975 250.685,123.076 250.300 C 123.176 249.915,123.176 249.285,123.076 248.900 C 122.975 248.515,122.893 248.830,122.893 249.600 M276.893 250.000 C 276.893 250.770,276.975 251.085,277.076 250.700 C 277.176 250.315,277.176 249.685,277.076 249.300 C 276.975 248.915,276.893 249.230,276.893 250.000 M121.856 255.684 C 121.721 256.188,121.628 257.050,121.649 257.600 C 121.672 258.189,121.831 257.871,122.036 256.825 C 122.403 254.952,122.273 254.127,121.856 255.684 M120.650 263.650 C 120.317 265.317,120.640 265.640,121.000 264.000 C 121.152 263.309,121.193 262.659,121.091 262.558 C 120.989 262.456,120.791 262.947,120.650 263.650 M229.100 295.227 C 228.275 295.663,227.600 296.108,227.600 296.218 C 227.600 296.327,228.320 296.049,229.200 295.600 C 230.080 295.151,230.800 294.697,230.800 294.592 C 230.800 294.330,230.797 294.331,229.100 295.227 M195.600 309.182 C 195.930 309.405,196.545 309.591,196.967 309.594 C 197.990 309.602,197.671 309.373,196.200 309.044 C 195.324 308.848,195.162 308.885,195.600 309.182 " stroke="none" fill="#6f6046" fill-rule="evenodd"></path></g></svg>