<?xml version="1.0" encoding="UTF-8"?>
<svg version="1.1" xmlns="http://www.w3.org/2000/svg" width="96" height="96">
<path d="M0 0 C0.67194397 -0.0065712 1.34388794 -0.0131424 2.03619385 -0.01991272 C4.25883096 -0.03961403 6.48140054 -0.05130213 8.70410156 -0.0612793 C9.46489265 -0.06535482 10.22568375 -0.06943035 11.00952911 -0.07362938 C15.03759997 -0.09447818 19.06563689 -0.10878414 23.09375 -0.11816406 C27.24429036 -0.12921676 31.39429287 -0.16360633 35.5446434 -0.20333576 C38.74465905 -0.22954327 41.94454743 -0.2378596 45.14466095 -0.24144554 C46.67400997 -0.24630207 48.20335366 -0.25788946 49.73259735 -0.27648354 C65.2948699 -0.45392041 65.2948699 -0.45392041 72.08691406 5.7746582 C75.85257852 10.6440519 76.47257221 13.76143419 76.52172852 19.83227539 C76.52829971 20.50421936 76.53487091 21.17616333 76.54164124 21.86846924 C76.56134254 24.09110635 76.57303065 26.31367593 76.58300781 28.53637695 C76.58708334 29.29716805 76.59115887 30.05795914 76.59535789 30.8418045 C76.61620669 34.86987536 76.63051266 38.89791228 76.63989258 42.92602539 C76.65094527 47.07656575 76.68533484 51.22656826 76.72506428 55.37691879 C76.75127179 58.57693444 76.75958812 61.77682282 76.76317406 64.97693634 C76.76803059 66.50628536 76.77961797 68.03562905 76.79821205 69.56487274 C76.97564893 85.12714529 76.97564893 85.12714529 70.74707031 91.91918945 C65.87767662 95.68485391 62.76029432 96.3048476 56.68945312 96.35400391 C56.01750916 96.3605751 55.34556519 96.3671463 54.65325928 96.37391663 C52.43062217 96.39361794 50.20805259 96.40530604 47.98535156 96.4152832 C46.84416492 96.42139649 46.84416492 96.42139649 45.67992401 96.42763329 C41.65185316 96.44848209 37.62381624 96.46278805 33.59570312 96.47216797 C29.44516277 96.48322066 25.29516026 96.51761023 21.14480972 96.55733967 C17.94479407 96.58354718 14.74490569 96.59186351 11.54479218 96.59544945 C10.01544316 96.60030598 8.48609947 96.61189336 6.95685577 96.63048744 C-8.60541678 96.80792432 -8.60541678 96.80792432 -15.39746094 90.5793457 C-19.17062991 85.70024789 -19.78232676 82.588973 -19.81640625 76.50585938 C-19.82137115 75.83230911 -19.82633606 75.15875885 -19.83145142 74.46479797 C-19.84605133 72.23734513 -19.85287178 70.00996353 -19.85839844 67.7824707 C-19.86415217 66.23171487 -19.86990988 64.68095905 -19.87567139 63.13020325 C-19.88617554 59.87781442 -19.89202187 56.62545027 -19.89550781 53.37304688 C-19.90098793 49.21353886 -19.92500786 45.05435896 -19.95347977 40.89495373 C-19.97214133 37.6906897 -19.97731364 34.4865041 -19.97884369 31.28219032 C-19.98186338 29.74924236 -19.98986882 28.21629556 -20.00302887 26.68340111 C-20.02016182 24.534126 -20.01819187 22.38564458 -20.01171875 20.23632812 C-20.01718719 18.40457283 -20.01718719 18.40457283 -20.02276611 16.53581238 C-19.4344144 11.15839396 -17.3342813 7.26452809 -13.15527344 3.86450195 C-12.56746094 3.37336914 -11.97964844 2.88223633 -11.37402344 2.3762207 C-7.73783021 -0.16085048 -4.2914631 0.03474847 0 0 Z " fill="#242938" transform="translate(19.6552734375,-0.177001953125)"/>
<path d="M0 0 C2.96875 -0.328125 2.96875 -0.328125 6.5 -0.25 C7.6653125 -0.23453125 8.830625 -0.2190625 10.03125 -0.203125 C13 0 13 0 15 1 C15 16.84 15 32.68 15 49 C12.15504507 50.42247747 9.6688204 50.20793601 6.5 50.25 C5.3346875 50.27578125 4.169375 50.3015625 2.96875 50.328125 C1.9890625 50.21984375 1.009375 50.1115625 0 50 C-2.07518789 46.88721817 -2.25145186 46.19985616 -2.25878906 42.66796875 C-2.26509338 41.79696533 -2.27139771 40.92596191 -2.27789307 40.02856445 C-2.2738446 39.09101318 -2.26979614 38.15346191 -2.265625 37.1875 C-2.26753845 36.22223389 -2.2694519 35.25696777 -2.27142334 34.26245117 C-2.2727844 32.22151428 -2.26909345 30.1805687 -2.26074219 28.13964844 C-2.25004165 25.01217234 -2.26064022 21.88527069 -2.2734375 18.7578125 C-2.27211589 16.7760404 -2.26955347 14.79426865 -2.265625 12.8125 C-2.26967346 11.87494873 -2.27372192 10.93739746 -2.27789307 9.97143555 C-2.27158875 9.10043213 -2.26528442 8.22942871 -2.25878906 7.33203125 C-2.25719788 6.56608643 -2.25560669 5.8001416 -2.25396729 5.01098633 C-2 3 -2 3 0 0 Z " fill="#1D80CE" transform="translate(41,23)"/>
<path d="M0 0 C1.06347656 0.00386719 2.12695312 0.00773437 3.22265625 0.01171875 C5.9375 0.3125 5.9375 0.3125 7.9375 2.3125 C8.1370697 4.87000453 8.21736826 7.31688141 8.203125 9.875 C8.20503845 10.62209229 8.2069519 11.36918457 8.20892334 12.13891602 C8.21028498 13.71924171 8.20659 15.29957858 8.19824219 16.87988281 C8.187542 19.30298922 8.19813779 21.72535423 8.2109375 24.1484375 C8.2096159 25.68229331 8.2070535 27.21614865 8.203125 28.75 C8.20717346 29.47711182 8.21122192 30.20422363 8.21539307 30.95336914 C8.16742361 36.08257639 8.16742361 36.08257639 5.9375 38.3125 C2.96875 38.578125 2.96875 38.578125 -0.5625 38.5625 C-1.7278125 38.56765625 -2.893125 38.5728125 -4.09375 38.578125 C-7.0625 38.3125 -7.0625 38.3125 -9.0625 36.3125 C-9.2742572 33.83861125 -9.36649471 31.47938876 -9.36328125 29.00390625 C-9.36756638 28.28138168 -9.3718515 27.55885712 -9.37626648 26.81443787 C-9.38201237 25.28540088 -9.38250812 23.75633656 -9.37817383 22.22729492 C-9.37501671 19.88738326 -9.39845758 17.54873933 -9.42382812 15.20898438 C-9.42610139 13.72395993 -9.42680449 12.23893208 -9.42578125 10.75390625 C-9.434991 10.0538295 -9.44420074 9.35375275 -9.45368958 8.63246155 C-9.42620664 5.74684196 -9.38730149 3.78165771 -7.71777344 1.37011719 C-5.17304042 -0.25580957 -2.98040789 -0.04707813 0 0 Z " fill="#D9A507" transform="translate(23.0625,34.6875)"/>
<path d="M0 0 C1.26714844 -0.01417969 2.53429687 -0.02835938 3.83984375 -0.04296875 C7.0625 0.1875 7.0625 0.1875 9.0625 2.1875 C9.32128906 4.57006836 9.32128906 4.57006836 9.328125 7.52734375 C9.33199219 9.1215918 9.33199219 9.1215918 9.3359375 10.74804688 C9.32820313 11.86244141 9.32046875 12.97683594 9.3125 14.125 C9.32023437 15.23552734 9.32796875 16.34605469 9.3359375 17.49023438 C9.33335938 18.55435547 9.33078125 19.61847656 9.328125 20.71484375 C9.32586914 21.69187256 9.32361328 22.66890137 9.32128906 23.67553711 C9.0625 26.1875 9.0625 26.1875 7.0625 29.1875 C3.83984375 29.515625 3.83984375 29.515625 0 29.4375 C-1.26972656 29.42203125 -2.53945312 29.4065625 -3.84765625 29.390625 C-6.9375 29.1875 -6.9375 29.1875 -7.9375 28.1875 C-8.03733058 26.19992972 -8.06830753 24.2088248 -8.0703125 22.21875 C-8.07160156 21.00832031 -8.07289062 19.79789063 -8.07421875 18.55078125 C-8.07035156 17.27589844 -8.06648438 16.00101563 -8.0625 14.6875 C-8.06636719 13.41261719 -8.07023437 12.13773438 -8.07421875 10.82421875 C-8.07292969 9.61378906 -8.07164063 8.40335938 -8.0703125 7.15625 C-8.06918457 6.03669922 -8.06805664 4.91714844 -8.06689453 3.76367188 C-7.81001523 -1.35064957 -4.40063282 0.02233824 0 0 Z " fill="#E94135" transform="translate(72.9375,43.8125)"/>
<path d="M0 0 C6 0 6 0 8 1 C8 16.84 8 32.68 8 49 C6 50 6 50 0 50 C0 33.5 0 17 0 0 Z " fill="#2195F2" transform="translate(48,23)"/>
<path d="M0 0 C2.31 0 4.62 0 7 0 C8.96741628 1.96741628 8.16388207 5.77567731 8.16796875 8.46484375 C8.17129715 9.21335098 8.17462555 9.96185822 8.17805481 10.73304749 C8.18312693 12.31933984 8.18546305 13.9056429 8.18530273 15.49194336 C8.18748773 17.92384369 8.20563581 20.35528949 8.22460938 22.78710938 C8.22754349 24.32551928 8.22952817 25.86393134 8.23046875 27.40234375 C8.23765427 28.13259262 8.24483978 28.86284149 8.25224304 29.61521912 C8.22882307 34.77117693 8.22882307 34.77117693 6 37 C4.02 37 2.04 37 0 37 C0 24.79 0 12.58 0 0 Z " fill="#FCBE07" transform="translate(23,36)"/>
<path d="M0 0 C2.31 0 4.62 0 7 0 C7 9.57 7 19.14 7 29 C4.69 29 2.38 29 0 29 C-1.80279191 27.19720809 -1.13036605 24.45952299 -1.1328125 22.03125 C-1.13410156 20.82082031 -1.13539062 19.61039063 -1.13671875 18.36328125 C-1.13285156 17.08839844 -1.12898438 15.81351563 -1.125 14.5 C-1.12886719 13.22511719 -1.13273437 11.95023438 -1.13671875 10.63671875 C-1.13542969 9.42628906 -1.13414063 8.21585938 -1.1328125 6.96875 C-1.13168457 5.84919922 -1.13055664 4.72964844 -1.12939453 3.57617188 C-1 1 -1 1 0 0 Z " fill="#D2392F" transform="translate(66,44)"/>
</svg>
