<?xml version="1.0" encoding="UTF-8"?>
<svg version="1.1" xmlns="http://www.w3.org/2000/svg" width="96" height="96">
<path d="M0 0 C0.67194397 -0.0065712 1.34388794 -0.0131424 2.03619385 -0.01991272 C4.25883096 -0.03961403 6.48140054 -0.05130213 8.70410156 -0.0612793 C9.46489265 -0.06535482 10.22568375 -0.06943035 11.00952911 -0.07362938 C15.03759997 -0.09447818 19.06563689 -0.10878414 23.09375 -0.11816406 C27.24429036 -0.12921676 31.39429287 -0.16360633 35.5446434 -0.20333576 C38.74465905 -0.22954327 41.94454743 -0.2378596 45.14466095 -0.24144554 C46.67400997 -0.24630207 48.20335366 -0.25788946 49.73259735 -0.27648354 C65.2948699 -0.45392041 65.2948699 -0.45392041 72.08691406 5.7746582 C75.85257852 10.6440519 76.47257221 13.76143419 76.52172852 19.83227539 C76.52829971 20.50421936 76.53487091 21.17616333 76.54164124 21.86846924 C76.56134254 24.09110635 76.57303065 26.31367593 76.58300781 28.53637695 C76.58708334 29.29716805 76.59115887 30.05795914 76.59535789 30.8418045 C76.61620669 34.86987536 76.63051266 38.89791228 76.63989258 42.92602539 C76.65094527 47.07656575 76.68533484 51.22656826 76.72506428 55.37691879 C76.75127179 58.57693444 76.75958812 61.77682282 76.76317406 64.97693634 C76.76803059 66.50628536 76.77961797 68.03562905 76.79821205 69.56487274 C76.97564893 85.12714529 76.97564893 85.12714529 70.74707031 91.91918945 C65.87767662 95.68485391 62.76029432 96.3048476 56.68945312 96.35400391 C56.01750916 96.3605751 55.34556519 96.3671463 54.65325928 96.37391663 C52.43062217 96.39361794 50.20805259 96.40530604 47.98535156 96.4152832 C46.84416492 96.42139649 46.84416492 96.42139649 45.67992401 96.42763329 C41.65185316 96.44848209 37.62381624 96.46278805 33.59570312 96.47216797 C29.44516277 96.48322066 25.29516026 96.51761023 21.14480972 96.55733967 C17.94479407 96.58354718 14.74490569 96.59186351 11.54479218 96.59544945 C10.01544316 96.60030598 8.48609947 96.61189336 6.95685577 96.63048744 C-8.60541678 96.80792432 -8.60541678 96.80792432 -15.39746094 90.5793457 C-19.17062991 85.70024789 -19.78232676 82.588973 -19.81640625 76.50585938 C-19.82137115 75.83230911 -19.82633606 75.15875885 -19.83145142 74.46479797 C-19.84605133 72.23734513 -19.85287178 70.00996353 -19.85839844 67.7824707 C-19.86415217 66.23171487 -19.86990988 64.68095905 -19.87567139 63.13020325 C-19.88617554 59.87781442 -19.89202187 56.62545027 -19.89550781 53.37304688 C-19.90098793 49.21353886 -19.92500786 45.05435896 -19.95347977 40.89495373 C-19.97214133 37.6906897 -19.97731364 34.4865041 -19.97884369 31.28219032 C-19.98186338 29.74924236 -19.98986882 28.21629556 -20.00302887 26.68340111 C-20.02016182 24.534126 -20.01819187 22.38564458 -20.01171875 20.23632812 C-20.01718719 18.40457283 -20.01718719 18.40457283 -20.02276611 16.53581238 C-19.4344144 11.15839396 -17.3342813 7.26452809 -13.15527344 3.86450195 C-12.56746094 3.37336914 -11.97964844 2.88223633 -11.37402344 2.3762207 C-7.73783021 -0.16085048 -4.2914631 0.03474847 0 0 Z " fill="#242938" transform="translate(19.6552734375,-0.177001953125)"/>
<path d="M0 0 C2.19921875 1.08984375 2.19921875 1.08984375 5.38671875 3.08984375 C5.38671875 3.74984375 5.38671875 4.40984375 5.38671875 5.08984375 C6.90652344 5.02023438 6.90652344 5.02023438 8.45703125 4.94921875 C9.80856407 4.91167617 11.16012903 4.87527869 12.51171875 4.83984375 C13.176875 4.80632813 13.84203125 4.7728125 14.52734375 4.73828125 C19.64668171 4.63790207 22.49459974 5.80976788 26.38671875 9.08984375 C27.19921875 11.83984375 27.19921875 11.83984375 26.38671875 15.08984375 C23.62737268 19.06826599 21.05396219 22.53409594 16.38671875 24.08984375 C14.09282671 22.97902201 11.95379241 21.81366966 9.76171875 20.52734375 C-1.29400654 14.34005738 -13.08167115 10.07898821 -25.61328125 8.08984375 C-23.87099239 4.07313841 -21.88916977 2.27436013 -18.15625 0.078125 C-12.40399463 -2.15739053 -5.80239125 -2.02086272 0 0 Z " fill="#F49023" transform="translate(54.61328125,36.91015625)"/>
<path d="M0 0 C2.19921875 1.08984375 2.19921875 1.08984375 5.38671875 3.08984375 C5.05671875 4.07984375 4.72671875 5.06984375 4.38671875 6.08984375 C1.88202596 6.94741271 -0.48387214 7.62229779 -3.05078125 8.21484375 C-7.95524277 9.29513569 -7.95524277 9.29513569 -12.61328125 11.08984375 C-14.83577115 10.68133982 -17.04352228 10.19027487 -19.23828125 9.65234375 C-20.42679688 9.36488281 -21.6153125 9.07742187 -22.83984375 8.78125 C-23.75507813 8.55308594 -24.6703125 8.32492188 -25.61328125 8.08984375 C-23.87099239 4.07313841 -21.88916977 2.27436013 -18.15625 0.078125 C-12.40399463 -2.15739053 -5.80239125 -2.02086272 0 0 Z " fill="#8CC245" transform="translate(54.61328125,36.91015625)"/>
<path d="M0 0 C4.54042698 4.9910037 6.80943833 10.4519108 8 17 C3.14841313 15.48150646 -1.42890362 13.56802901 -6.0625 11.5 C-10.350113 9.59704827 -14.62821628 7.70439911 -19 6 C-18.67 5.34 -18.34 4.68 -18 4 C-15.53792482 3.19497781 -13.13174861 2.50401685 -10.625 1.875 C-9.93921875 1.69324219 -9.2534375 1.51148438 -8.546875 1.32421875 C-5.61869471 0.56653786 -3.03665271 0 0 0 Z " fill="#D8CE04" transform="translate(62,42)"/>
<path d="M0 0 C0.33 0.33 0.66 0.66 1 1 C2.093125 0.979375 3.18625 0.95875 4.3125 0.9375 C7.8362885 0.99722523 9.06524546 1.34798585 12 3 C10.91332031 3.67095703 10.91332031 3.67095703 9.8046875 4.35546875 C4.5678878 7.63021416 -0.38824804 10.88681582 -5 15 C-7.70408823 13.97431136 -8.97795525 13.02736589 -10.8125 10.75 C-12.30208343 7.30043837 -12.18159314 5.54477941 -11 2 C-7.78600733 -0.71953226 -4.03193759 -0.22822288 0 0 Z " fill="#1A5B8A" transform="translate(26,45)"/>
<path d="M0 0 C0.66 0.33 1.32 0.66 2 1 C1.67 3.97 1.34 6.94 1 10 C10.9 7.03 10.9 7.03 21 4 C20.67 4.99 20.34 5.98 20 7 C17.49530721 7.85756896 15.12940911 8.53245404 12.5625 9.125 C7.65803848 10.20529194 7.65803848 10.20529194 3 12 C0.7775101 11.59149607 -1.43024103 11.10043112 -3.625 10.5625 C-4.81351563 10.27503906 -6.00203125 9.98757812 -7.2265625 9.69140625 C-8.14179688 9.46324219 -9.05703125 9.23507813 -10 9 C-8.60064115 5.59635112 -7.12995268 4.09193812 -4 2.1875 C-3.29875 1.74792969 -2.5975 1.30835938 -1.875 0.85546875 C-1.25625 0.57316406 -0.6375 0.29085937 0 0 Z " fill="#6F963B" transform="translate(39,36)"/>
<path d="M0 0 C-1.53472968 4.72224516 -3.23945126 9.35855331 -5 14 C-7.97295465 11.40819338 -9.78470521 9.67279621 -11 5.875 C-11 3 -11 3 -10.0625 1.125 C-6.75632849 -0.67836628 -3.72581793 -0.18323695 0 0 Z " fill="#278EBF" transform="translate(25,46)"/>
<path d="M0 0 C1.65322266 0.01740234 1.65322266 0.01740234 3.33984375 0.03515625 C4.99693359 0.04869141 4.99693359 0.04869141 6.6875 0.0625 C7.54214844 0.07410156 8.39679688 0.08570313 9.27734375 0.09765625 C7.95734375 0.42765625 6.63734375 0.75765625 5.27734375 1.09765625 C5.41788247 3.72303909 5.56453322 6.34783052 5.71484375 8.97265625 C5.75416016 9.71902344 5.79347656 10.46539062 5.83398438 11.234375 C5.99307999 15.29752489 5.99307999 15.29752489 7.27734375 19.09765625 C5.37109375 18.39453125 5.37109375 18.39453125 3.27734375 17.09765625 C2.37109375 14.92578125 2.37109375 14.92578125 1.77734375 12.34765625 C0.59440625 7.83811552 -0.90591404 4.78855983 -3.72265625 1.09765625 C-2.72265625 0.09765625 -2.72265625 0.09765625 0 0 Z " fill="#B77523" transform="translate(65.72265625,41.90234375)"/>
<path d="M0 0 C4.63615331 3.99224313 6.97252889 8.23473298 9 14 C9 14.66 9 15.32 9 16 C5.59687262 14.94124926 2.98646769 13.99097846 0 12 C-0.29296875 9.1796875 -0.29296875 9.1796875 -0.1875 5.875 C-0.16042969 4.77929688 -0.13335937 3.68359375 -0.10546875 2.5546875 C-0.07066406 1.71164063 -0.03585938 0.86859375 0 0 Z " fill="#F5E905" transform="translate(61,43)"/>
<path d="M0 0 C4.60209225 -0.17700355 6.78370866 -0.10814567 11 2 C7.37 3.98 3.74 5.96 0 8 C0 5.36 0 2.72 0 0 Z " fill="#156DB0" transform="translate(27,46)"/>
<path d="M0 0 C1.65 0 3.3 0 5 0 C3.77263971 4.15414253 2.672336 6.43688534 0 10 C0 6.7 0 3.4 0 0 Z " fill="#2CA6DE" transform="translate(20,46)"/>
</svg>
